<svg width="61" height="61" viewBox="0 0 61 61" fill="none" xmlns="http://www.w3.org/2000/svg">
<rect x="1.52002" y="1.21973" width="58" height="58" rx="29" fill="#E5F4FD"/>
<rect x="1.52002" y="1.21973" width="58" height="58" rx="29" stroke="#E5F4FD" stroke-width="2"/>
<g clip-path="url(#clip0_2101_1181)">
<path d="M38.1118 21.5615H34.8618V20.4697C34.8618 20.165 34.756 19.9069 34.5444 19.6953C34.3328 19.4837 34.0747 19.3779 33.77 19.3779H22.9536C22.6489 19.3779 22.3908 19.4837 22.1792 19.6953C21.9676 19.9069 21.8618 20.165 21.8618 20.4697V21.5615H18.6118C18.3071 21.5615 18.049 21.6673 17.8374 21.8789C17.6258 22.0905 17.52 22.3402 17.52 22.6279V25.8779C17.52 27.0798 17.9432 28.1038 18.7896 28.9502C19.6359 29.7965 20.66 30.2197 21.8618 30.2197H23.5376C24.0116 30.7445 24.5659 31.1888 25.2007 31.5527C25.8354 31.9167 26.5168 32.1579 27.2446 32.2764H27.27V34.5615H26.2036C25.3065 34.5615 24.5405 34.8789 23.9058 35.5137C23.271 36.1484 22.9536 36.9144 22.9536 37.8115V39.9697C22.9536 40.2744 23.0594 40.5326 23.271 40.7441C23.4826 40.9557 23.7323 41.0615 24.02 41.0615H32.7036C32.9914 41.0615 33.241 40.9557 33.4526 40.7441C33.6642 40.5326 33.77 40.2744 33.77 39.9697V37.8115C33.77 36.9144 33.4526 36.1484 32.8179 35.5137C32.1831 34.8789 31.4172 34.5615 30.52 34.5615H29.4536V32.2764C30.1984 32.1579 30.8882 31.9167 31.5229 31.5527C32.1577 31.1888 32.7121 30.7445 33.186 30.2197H34.8618C36.0636 30.2197 37.0877 29.7965 37.9341 28.9502C38.7804 28.1038 39.2036 27.0798 39.2036 25.8779V22.6279C39.2036 22.3402 39.0978 22.0905 38.8862 21.8789C38.6746 21.6673 38.4165 21.5615 38.1118 21.5615ZM21.8618 28.0615C21.2694 28.0615 20.7616 27.8499 20.3384 27.4268C19.9152 27.0036 19.7036 26.4873 19.7036 25.8779V23.7197H21.8618V25.8779C21.8618 26.2673 21.8957 26.6481 21.9634 27.0205C22.0311 27.3929 22.1326 27.7484 22.2681 28.0869L22.2427 28.0615H21.8618ZM30.52 36.7197C30.8247 36.7197 31.0828 36.8255 31.2944 37.0371C31.506 37.2487 31.6118 37.5068 31.6118 37.8115V38.8779H25.1118V37.8115C25.1118 37.5068 25.2176 37.2487 25.4292 37.0371C25.6408 36.8255 25.8989 36.7197 26.2036 36.7197H30.52ZM32.7036 25.8779C32.7036 27.0798 32.2804 28.1038 31.4341 28.9502C30.5877 29.7965 29.5636 30.2197 28.3618 30.2197C27.16 30.2197 26.1359 29.7965 25.2896 28.9502C24.4432 28.1038 24.02 27.0798 24.02 25.8779V21.5615H32.7036V25.8779ZM37.02 25.8779C37.02 26.4873 36.8084 27.0036 36.3853 27.4268C35.9621 27.8499 35.4543 28.0615 34.8618 28.0615H34.481C34.5994 27.7399 34.6925 27.3929 34.7603 27.0205C34.828 26.6481 34.8618 26.2673 34.8618 25.8779V23.7197H37.02V25.8779Z" fill="#5EB9F0"/>
</g>
<defs>
<clipPath id="clip0_2101_1181">
<rect width="26" height="26" fill="white" transform="matrix(1 0 0 -1 17.52 43.2197)"/>
</clipPath>
</defs>
</svg>
