<svg width="61" height="61" viewBox="0 0 61 61" fill="none" xmlns="http://www.w3.org/2000/svg">
<rect x="1.63989" y="1.21973" width="58" height="58" rx="29" fill="#E5F4FD"/>
<rect x="1.63989" y="1.21973" width="58" height="58" rx="29" stroke="#E5F4FD" stroke-width="2"/>
<path d="M30.2383 30.2285C30.8138 29.7376 31.2666 29.1452 31.5967 28.4512C31.9268 27.7572 32.0918 27.0124 32.0918 26.2168C32.0918 25.4551 31.9479 24.7526 31.6602 24.1094C31.3724 23.4492 30.9873 22.8737 30.5049 22.3828C30.0225 21.8919 29.4512 21.5026 28.791 21.2148C28.1309 20.9271 27.4284 20.7832 26.6836 20.7832C25.9219 20.7832 25.2194 20.9271 24.5762 21.2148C23.916 21.5026 23.3405 21.8919 22.8496 22.3828C22.3587 22.8737 21.9694 23.4492 21.6816 24.1094C21.3939 24.7526 21.25 25.4551 21.25 26.2168C21.25 27.0124 21.415 27.7572 21.7451 28.4512C22.0752 29.1452 22.528 29.7376 23.1035 30.2285C22.3418 30.584 21.6478 31.0326 21.0215 31.5742C20.3952 32.1159 19.862 32.7253 19.4219 33.4023C18.9818 34.0794 18.6348 34.8158 18.3809 35.6113C18.127 36.4069 18 37.2448 18 38.125C18 38.4297 18.1058 38.6878 18.3174 38.8994C18.529 39.111 18.7871 39.2168 19.0918 39.2168C19.3965 39.2168 19.6546 39.111 19.8662 38.8994C20.0778 38.6878 20.1836 38.4297 20.1836 38.125C20.1836 37.2279 20.3529 36.3815 20.6914 35.5859C21.0299 34.8073 21.4912 34.1217 22.0752 33.5293C22.6592 32.9368 23.349 32.4714 24.1445 32.1328C24.9401 31.7943 25.7865 31.625 26.6836 31.625C27.5807 31.625 28.4186 31.7943 29.1973 32.1328C29.9928 32.4714 30.6826 32.9368 31.2666 33.5293C31.8506 34.1217 32.3203 34.8073 32.6758 35.5859C33.0143 36.3815 33.1836 37.2279 33.1836 38.125C33.1836 38.4297 33.2894 38.6878 33.501 38.8994C33.7126 39.111 33.9622 39.2168 34.25 39.2168C34.5547 39.2168 34.8128 39.111 35.0244 38.8994C35.236 38.6878 35.3418 38.4297 35.3418 38.125C35.3418 37.2448 35.2148 36.4069 34.9609 35.6113C34.724 34.8158 34.3812 34.0794 33.9326 33.4023C33.484 32.7253 32.9551 32.1159 32.3457 31.5742C31.7194 31.0495 31.0423 30.6094 30.3145 30.2539L30.2383 30.2285ZM26.6836 29.4668C25.7865 29.4668 25.0205 29.1494 24.3857 28.5146C23.751 27.8799 23.4336 27.1139 23.4336 26.2168C23.4336 25.3197 23.751 24.5537 24.3857 23.9189C25.0205 23.2842 25.7865 22.9668 26.6836 22.9668C27.5807 22.9668 28.3467 23.2842 28.9814 23.9189C29.6162 24.5537 29.9336 25.3197 29.9336 26.2168C29.9336 27.1139 29.6162 27.8799 28.9814 28.5146C28.3467 29.1494 27.5807 29.4668 26.6836 29.4668ZM39.3535 26.9023C39.252 26.8008 39.1377 26.7204 39.0107 26.6611C38.8838 26.6019 38.7441 26.5723 38.5918 26.5723C38.4395 26.5723 38.2998 26.6019 38.1729 26.6611C38.0459 26.7204 37.9316 26.8008 37.8301 26.9023L35.6465 29.0605L34.9863 28.375C34.8848 28.2734 34.7705 28.193 34.6436 28.1338C34.5166 28.0745 34.377 28.0449 34.2246 28.0449C34.0723 28.0449 33.9284 28.0745 33.793 28.1338C33.6576 28.193 33.5391 28.2734 33.4375 28.375C33.3529 28.4766 33.2809 28.5908 33.2217 28.7178C33.1624 28.8447 33.1328 28.9844 33.1328 29.1367C33.1328 29.2891 33.1624 29.4287 33.2217 29.5557C33.2809 29.6826 33.3529 29.7969 33.4375 29.8984L34.9102 31.3457C34.9948 31.4473 35.1048 31.5277 35.2402 31.5869C35.3757 31.6462 35.5195 31.6758 35.6719 31.6758C35.8073 31.6758 35.9427 31.6462 36.0781 31.5869C36.2135 31.5277 36.332 31.4473 36.4336 31.3457L39.3281 28.4512C39.4297 28.3665 39.5143 28.2523 39.582 28.1084C39.6497 27.9645 39.6836 27.8164 39.6836 27.6641C39.6836 27.5117 39.654 27.3678 39.5947 27.2324C39.5355 27.097 39.4551 26.987 39.3535 26.9023Z" fill="#5EB9F0"/>
</svg>
