<svg width="61" height="60" viewBox="0 0 61 60" fill="none" xmlns="http://www.w3.org/2000/svg">
<rect x="1.43994" y="1" width="58" height="58" rx="29" fill="#E5F4FD"/>
<rect x="1.43994" y="1" width="58" height="58" rx="29" stroke="#E5F4FD" stroke-width="2"/>
<g clip-path="url(#clip0_2101_1169)">
<path d="M26.4282 29.6953C26.5298 29.7799 26.644 29.8519 26.771 29.9111C26.8979 29.9704 27.0376 30 27.1899 30C27.3423 30 27.4862 29.9704 27.6216 29.9111C27.757 29.8519 27.8755 29.7799 27.9771 29.6953L32.2935 25.3535C32.395 25.252 32.4754 25.1377 32.5347 25.0107C32.5939 24.8838 32.6235 24.7441 32.6235 24.5918C32.6235 24.2871 32.5177 24.029 32.3062 23.8174C32.0946 23.6058 31.8364 23.5 31.5317 23.5C31.3794 23.5 31.2397 23.5296 31.1128 23.5889C30.9858 23.6481 30.8716 23.7201 30.77 23.8047L27.1899 27.3848L25.7935 25.9883C25.6919 25.8867 25.5776 25.8063 25.4507 25.7471C25.3237 25.6878 25.1841 25.6582 25.0317 25.6582C24.7271 25.6582 24.4689 25.764 24.2573 25.9756C24.0457 26.1872 23.9399 26.4453 23.9399 26.75C23.9399 26.9023 23.9696 27.042 24.0288 27.1689C24.0881 27.2959 24.1685 27.4102 24.27 27.5117L26.4282 29.6953ZM38.0317 32.1582H36.9399V21.3418H38.0317C38.3364 21.3418 38.5946 21.236 38.8062 21.0244C39.0177 20.8128 39.1235 20.5547 39.1235 20.25C39.1235 19.9453 39.0177 19.6872 38.8062 19.4756C38.5946 19.264 38.3364 19.1582 38.0317 19.1582H18.5317C18.2271 19.1582 17.9689 19.264 17.7573 19.4756C17.5457 19.6872 17.4399 19.9453 17.4399 20.25C17.4399 20.5547 17.5457 20.8128 17.7573 21.0244C17.9689 21.236 18.2271 21.3418 18.5317 21.3418H19.6235V32.1582H18.5317C18.2271 32.1582 17.9689 32.264 17.7573 32.4756C17.5457 32.6872 17.4399 32.9453 17.4399 33.25C17.4399 33.5547 17.5457 33.8128 17.7573 34.0244C17.9689 34.236 18.2271 34.3418 18.5317 34.3418H27.1899V35.5859L22.2642 38.8359C22.1118 38.9206 21.9891 39.0475 21.896 39.2168C21.8029 39.3861 21.7563 39.5638 21.7563 39.75C21.7563 40.0547 21.8621 40.3128 22.0737 40.5244C22.2853 40.736 22.5435 40.8418 22.8481 40.8418C22.8481 40.8418 22.8566 40.8418 22.8735 40.8418C22.992 40.8418 23.0978 40.8249 23.1909 40.791C23.284 40.7572 23.3729 40.7064 23.4575 40.6387L27.1899 38.1758V39.75C27.1899 40.0547 27.2957 40.3128 27.5073 40.5244C27.7189 40.736 27.9771 40.8418 28.2817 40.8418C28.5864 40.8418 28.8446 40.736 29.0562 40.5244C29.2677 40.3128 29.3735 40.0547 29.3735 39.75V38.1758L33.106 40.6387C33.1906 40.7064 33.2795 40.7572 33.3726 40.791C33.4657 40.8249 33.5715 40.8418 33.6899 40.8418C33.9946 40.8418 34.2528 40.736 34.4644 40.5244C34.6759 40.3128 34.7817 40.0547 34.7817 39.75C34.7817 39.5638 34.7352 39.3903 34.6421 39.2295C34.549 39.0687 34.4347 38.946 34.2993 38.8613L29.3735 35.6113V34.3418H38.0317C38.3364 34.3418 38.5946 34.236 38.8062 34.0244C39.0177 33.8128 39.1235 33.5547 39.1235 33.25C39.1235 32.9453 39.0177 32.6872 38.8062 32.4756C38.5946 32.264 38.3364 32.1582 38.0317 32.1582ZM34.7817 32.1582H21.7817V21.3418H34.7817V32.1582Z" fill="#5EB9F0"/>
</g>
<defs>
<clipPath id="clip0_2101_1169">
<rect width="26" height="26" fill="white" transform="matrix(1 0 0 -1 17.4399 43)"/>
</clipPath>
</defs>
</svg>
